# xmcd
#
# Track frame offsets: 
#        150
#        13920
#        27974
#        43590
#        56483
#        72005
#        85717
#        99319
#        111009
#        125227
#        140979
#        155592
#        171297
#        186236
#        198908
#        213072
#        227962
#        244088
#        258669
#        274363
#        290570
#        302257
#        313905
#        329670
#
# Disc length: 4593 seconds
#
# Revision: 0
# Processed by: cddbd v1.4PL0 Copyright (c) Steve Scherf et al.
# Submitted via: ExactAudioCopy v0.95a2
#
DISCID=6b11ef18
DTITLE=Time Life Music - Music From The War Years (Disk 2)
DYEAR=2003
DGENRE=Jazz
TTITLE0=One O' Clock Jump
TTITLE1=Song of India
TTITLE2=Little Brown Jug
TTITLE3=Jersey Bounce
TTITLE4=American Patrol
TTITLE5=Cherokee
TTITLE6=I Get A Kick Out Of You
TTITLE7=Boogie Woogie Maxine
TTITLE8=On The Sunny Side Of The Street
TTITLE9=Tuxedo Junction
TTITLE10=Big John's Special
TTITLE11=Hamp's Boogie Woogie
TTITLE12=Pinetop's Boogie
TTITLE13=Harlem Nocturne
TTITLE14=Don't Be That Way
TTITLE15=You Made Me Love You
TTITLE16=Solitude
TTITLE17=Down South Camp Meeting
TTITLE18=Serenade In Blue
TTITLE19=Oh Lady Be Good
TTITLE20=Leap Frog
TTITLE21=After You've Gone
TTITLE22=Cotton Tail
TTITLE23=Painted Rhythm
EXTD=
EXTT0=
EXTT1=
EXTT2=
EXTT3=
EXTT4=
EXTT5=
EXTT6=
EXTT7=
EXTT8=
EXTT9=
EXTT10=
EXTT11=
EXTT12=
EXTT13=
EXTT14=
EXTT15=
EXTT16=
EXTT17=
EXTT18=
EXTT19=
EXTT20=
EXTT21=
EXTT22=
EXTT23=
PLAYORDER=
